<svg xmlns="http://www.w3.org/2000/svg" xmlns:svg="http://www.w3.org/2000/svg" id="Layer_1" x="0" y="0" version="1.1" viewBox="0 0 286.053 286.053" xml:space="preserve" style="enable-background:new 0 0 286.053 286.053"><metadata id="metadata41"/><path id="path2" d="m 129.162,204.922 c 10.62,10.62 16.672,11.031 27.72,0 l 81.212,-83.242 c 7.625,-12.846 1.386,-23.349 -13.856,-23.349 H 187.721 V 17.878 C 187.723,8.01 179.713,0 169.845,0 H 116.21 C 106.341,0 98.332,8.01 98.332,17.878 V 98.331 H 61.806 c -15.241,0 -21.481,10.512 -13.856,23.349 z m 139.014,36.436 H 17.878 C 8.01,241.358 0,249.367 0,259.236 v 8.939 c 0,9.878 8.01,17.878 17.878,17.878 h 250.297 c 9.869,0 17.878,-8.001 17.878,-17.878 v -8.939 c 10e-4,-9.869 -8.009,-17.878 -17.877,-17.878 z" style="fill:teal"/></svg>