<svg xmlns="http://www.w3.org/2000/svg" xmlns:svg="http://www.w3.org/2000/svg" xmlns:xlink="http://www.w3.org/1999/xlink" id="svg2" width="128" height="128" version="1.1"><defs id="defs4"><linearGradient id="linearGradient3674"><stop style="stop-color:#f9f4e5;stop-opacity:1" id="stop3676" offset="0"/><stop style="stop-color:#ffec95;stop-opacity:0" id="stop3678" offset="1"/></linearGradient><linearGradient id="linearGradient3617"><stop style="stop-color:#06010c;stop-opacity:1" id="stop3619" offset="0"/><stop style="stop-color:#d0c7e9;stop-opacity:1" id="stop3621" offset="1"/></linearGradient><linearGradient id="linearGradient3623-5" x1="0" x2="106" y1="942.362" y2="1048.362" gradientTransform="translate(0.49999994,-0.50002952)" gradientUnits="userSpaceOnUse" xlink:href="#linearGradient3617-2"/><linearGradient id="linearGradient3617-2"><stop style="stop-color:#e4d6fa;stop-opacity:1" id="stop3619-3" offset="0"/><stop style="stop-color:#a183f1;stop-opacity:1" id="stop3621-1" offset="1"/></linearGradient><linearGradient id="linearGradient3680" x1="92.757" x2="25.673" y1="1053.947" y2="918.807" gradientTransform="matrix(1.119948,0,0,1.1869672,2.7970819,-192.88935)" gradientUnits="userSpaceOnUse" xlink:href="#linearGradient3674"/><filter id="filter3730" color-interpolation-filters="sRGB"><feGaussianBlur id="feGaussianBlur3732" stdDeviation="1.06"/></filter><radialGradient id="radialGradient10566" cx="24.547" cy="37.595" r="22.728" fx="24.547" fy="37.595" gradientTransform="matrix(1,0,0,0.333333,0,25.06362)" gradientUnits="userSpaceOnUse" xlink:href="#linearGradient7844"/><linearGradient id="linearGradient7844"><stop id="stop7846" offset="0" style="stop-color:#000;stop-opacity:1"/><stop id="stop7848" offset="1" style="stop-color:#000;stop-opacity:0"/></linearGradient><linearGradient id="linearGradient10568" x1="14.997" x2="32.511" y1="11.188" y2="34.307" gradientTransform="matrix(0.683145,0,0,0.683145,18.55581,18.12886)" gradientUnits="userSpaceOnUse" xlink:href="#aigrd1"/><linearGradient id="aigrd1" x1="14.997" x2="32.511" y1="11.188" y2="34.307" gradientUnits="userSpaceOnUse"><stop style="stop-color:#ebebeb" id="stop3034" offset="0"/><stop style="stop-color:#fff" id="stop3036" offset=".5"/><stop style="stop-color:#ebebeb" id="stop3038" offset="1"/></linearGradient><linearGradient id="linearGradient10570" x1="12.274" x2="35.391" y1="32.416" y2="14.203" gradientTransform="matrix(0.705308,0,0,0.705308,18.02392,17.61692)" gradientUnits="userSpaceOnUse" xlink:href="#aigrd2"/><linearGradient id="aigrd2" x1="12.274" x2="35.391" y1="32.416" y2="14.203" gradientUnits="userSpaceOnUse"><stop style="stop-color:#fbfbfb" id="stop3043" offset="0"/><stop style="stop-color:#b6b6b6" id="stop3045" offset=".5"/><stop style="stop-color:#e4e4e4" id="stop3047" offset="1"/></linearGradient><linearGradient id="linearGradient10572" x1="21.125" x2="29" y1="14.625" y2="28" gradientTransform="matrix(0.717302,0,0,0.717302,17.73603,18.06909)" gradientUnits="userSpaceOnUse" xlink:href="#linearGradient4236"/><linearGradient id="linearGradient4236"><stop style="stop-color:#fff;stop-opacity:.32673267" id="stop4238" offset="0"/><stop style="stop-color:#fff;stop-opacity:.60396039" id="stop4240" offset="1"/></linearGradient><linearGradient id="linearGradient10574" x1="21.125" x2="29" y1="14.625" y2="28" gradientTransform="matrix(0.717302,0,0,0.717302,17.73603,18.06909)" gradientUnits="userSpaceOnUse" xlink:href="#linearGradient4236"/><linearGradient id="linearGradient5604"><stop style="stop-color:#fff;stop-opacity:.32673267" id="stop5606" offset="0"/><stop style="stop-color:#fff;stop-opacity:.60396039" id="stop5608" offset="1"/></linearGradient><linearGradient id="linearGradient10576" x1="10.502" x2="48.799" y1="3.61" y2="54.698" gradientTransform="matrix(0.573842,0,0,0.573842,20.97995,19.56347)" gradientUnits="userSpaceOnUse" xlink:href="#linearGradient6036"/><linearGradient id="linearGradient6036"><stop style="stop-color:#fff;stop-opacity:1" id="stop6038" offset="0"/><stop style="stop-color:#fff;stop-opacity:0" id="stop6040" offset="1"/></linearGradient><linearGradient id="linearGradient10578" x1="28.703" x2="17.743" y1="31.495" y2="18.367" gradientUnits="userSpaceOnUse" xlink:href="#linearGradient6028"/><linearGradient id="linearGradient6028"><stop style="stop-color:#fff;stop-opacity:1" id="stop6030" offset="0"/><stop style="stop-color:#fff;stop-opacity:0" id="stop6032" offset="1"/></linearGradient><radialGradient id="radialGradient10580" cx="37.751" cy="27.569" r="21.333" fx="37.751" fy="27.569" gradientTransform="matrix(0.441746,0.498655,-0.407098,0.360624,32.00755,10.21308)" gradientUnits="userSpaceOnUse" xlink:href="#linearGradient3394"/><linearGradient id="linearGradient3394" x1="12.274" x2="35.391" y1="32.416" y2="14.203" gradientUnits="userSpaceOnUse"><stop id="stop3396" offset="0" style="stop-color:#fff307;stop-opacity:1"/><stop id="stop3398" offset=".5" style="stop-color:#166eff;stop-opacity:1"/><stop id="stop3400" offset="1" style="stop-color:#fff;stop-opacity:0"/></linearGradient><linearGradient id="linearGradient5743" x1="14.997" x2="32.511" y1="11.188" y2="34.307" gradientTransform="matrix(0.683145,0,0,0.683145,18.55581,18.12886)" gradientUnits="userSpaceOnUse" xlink:href="#aigrd1"/><linearGradient id="linearGradient5745" x1="12.274" x2="35.391" y1="32.416" y2="14.203" gradientTransform="matrix(0.705308,0,0,0.705308,18.02392,17.61692)" gradientUnits="userSpaceOnUse" xlink:href="#aigrd2"/><linearGradient id="linearGradient5747" x1="21.125" x2="29" y1="14.625" y2="28" gradientTransform="matrix(0.717302,0,0,0.717302,17.73603,18.06909)" gradientUnits="userSpaceOnUse" xlink:href="#linearGradient4236"/><linearGradient id="linearGradient5749" x1="21.125" x2="29" y1="14.625" y2="28" gradientTransform="matrix(0.717302,0,0,0.717302,17.73603,18.06909)" gradientUnits="userSpaceOnUse" xlink:href="#linearGradient4236"/><linearGradient id="linearGradient5751" x1="10.502" x2="48.799" y1="3.61" y2="54.698" gradientTransform="matrix(0.573842,0,0,0.573842,20.97995,19.56347)" gradientUnits="userSpaceOnUse" xlink:href="#linearGradient6036"/><linearGradient id="linearGradient5753" x1="28.703" x2="17.743" y1="31.495" y2="18.367" gradientUnits="userSpaceOnUse" xlink:href="#linearGradient6028"/><radialGradient id="radialGradient5755" cx="37.751" cy="27.569" r="21.333" fx="37.751" fy="27.569" gradientTransform="matrix(0.441746,0.498655,-0.407098,0.360624,32.00755,10.21308)" gradientUnits="userSpaceOnUse" xlink:href="#linearGradient3394"/><linearGradient id="linearGradient3623-8" x1="0" x2="106" y1="942.362" y2="1048.362" gradientTransform="translate(0.50000263,-0.50000591)" gradientUnits="userSpaceOnUse" xlink:href="#linearGradient3617-8"/><linearGradient id="linearGradient3617-8"><stop style="stop-color:#f0edf6;stop-opacity:1" id="stop3619-2" offset="0"/><stop style="stop-color:#e1dee9;stop-opacity:1" id="stop3621-7" offset="1"/></linearGradient></defs><metadata id="metadata7"/><g id="layer1" transform="translate(-0.49619138,-925.11965)"><rect style="opacity:.5;fill:#000;fill-opacity:1;stroke:none;filter:url(#filter3730)" id="rect2830-6" width="106" height="106" x="1.897" y="944.004" transform="matrix(1.1237981,0,0,1.1237981,4.3831365,-129.732)"/><rect style="opacity:.84999999999999998;fill:#150a1c;fill-opacity:1;stroke:#1f1d2a;stroke-width:1.1504452199999999;stroke-opacity:1" id="rect2830" width="121.947" height="121.947" x="1.071" y="925.695"/><g id="g10156" transform="matrix(4.3065971,0,0,4.3065971,-89.561717,839.73286)"><path id="path3040" d="m 34.951289,21.954475 c -6.626509,0 -11.955042,5.328533 -11.955042,11.955042 0,6.626509 5.328533,11.955042 11.955042,11.955042 6.62651,0 11.955043,-5.328533 11.955043,-11.955042 0,-6.626509 -5.328533,-11.955042 -11.955043,-11.955042 l 0,0 z m 0,14.824252 c -1.571234,0 -2.86921,-1.297976 -2.86921,-2.86921 0,-1.571234 1.297976,-2.86921 2.86921,-2.86921 1.571234,0 2.86921,1.297976 2.86921,2.86921 0,1.571234 -1.297976,2.86921 -2.86921,2.86921 z" style="fill:url(#linearGradient5743);fill-rule:nonzero;stroke:none"/><path id="path3049" d="m 34.951305,21.566644 c -6.841486,0 -12.342888,5.501401 -12.342888,12.342888 0,6.841486 5.501402,12.342887 12.342888,12.342887 6.841487,0 12.342888,-5.501401 12.342888,-12.342887 0,-6.841487 -5.501401,-12.342888 -12.342888,-12.342888 l 0,0 z m 0,15.30518 c -1.622208,0 -2.962293,-1.340084 -2.962293,-2.962292 0,-1.622208 1.340085,-2.962293 2.962293,-2.962293 1.622208,0 2.962293,1.340085 2.962293,2.962293 0,1.622208 -1.340085,2.962292 -2.962293,2.962292 z" style="fill:url(#linearGradient5745);fill-rule:nonzero;stroke:gray;stroke-miterlimit:4;stroke-opacity:1"/><path id="path3051" d="m 34.951289,28.111323 c -3.237952,0 -5.798194,2.635543 -5.798194,5.798194 0,3.237954 2.635543,5.798195 5.798194,5.798195 3.237953,0 5.798195,-2.635543 5.798195,-5.798195 0,-3.237953 -2.635544,-5.798194 -5.798195,-5.798194 l 0,0 z m 0,8.960846 c -1.731928,0 -3.162651,-1.430723 -3.162651,-3.162652 0,-1.731928 1.430723,-3.162651 3.162651,-3.162651 1.731928,0 3.162651,1.430723 3.162651,3.162651 0,1.731929 -1.430723,3.162652 -3.162651,3.162652 z" style="opacity:.10999995;fill-rule:nonzero;stroke:none"/><path style="fill:url(#linearGradient5747);fill-opacity:1;fill-rule:nonzero;stroke:none" id="path3916" d="m 38.150519,22.816711 -2.063876,8.030725 c 0.645402,0.171876 1.161538,0.571243 1.512147,1.123894 l 7.111176,-4.332097 c -1.454832,-2.369804 -3.789773,-4.113338 -6.559447,-4.822522 z"/><path id="path4214" d="m 30.911911,44.678269 2.717288,-7.833804 c -0.629082,-0.224368 -1.110628,-0.664826 -1.414602,-1.244438 l -7.44334,3.73264 c 1.255025,2.481415 3.438679,4.411057 6.140654,5.345602 z" style="fill:url(#linearGradient5749);fill-opacity:1;fill-rule:nonzero;stroke:none"/><path style="opacity:.54644811;fill:none;stroke:url(#linearGradient5751);stroke-miterlimit:4;stroke-opacity:1" id="path5264" d="m 34.951287,22.548803 c -6.29708,0 -11.360712,5.063632 -11.360712,11.360712 0,6.297081 5.063632,11.360712 11.360712,11.360712 6.297081,0 11.360712,-5.063631 11.360712,-11.360712 0,-6.29708 -5.063631,-11.360712 -11.360712,-11.360712 l 0,0 z"/><path style="opacity:.67213111;color:#000;fill:none;stroke:url(#linearGradient5753);stroke-width:1.62159407;stroke-linecap:butt;stroke-linejoin:miter;stroke-miterlimit:4;stroke-opacity:1;stroke-dashoffset:0;marker:none;visibility:visible;display:inline;overflow:visible" id="path6026" d="m 30.405591,24.930641 c 0,3.368272 -2.730524,6.098796 -6.098796,6.098796 -3.368272,0 -6.098796,-2.730524 -6.098796,-6.098796 0,-3.368272 2.730524,-6.098796 6.098796,-6.098796 3.368272,0 6.098796,2.730524 6.098796,6.098796 z" transform="matrix(0.573842,0,0,0.573842,21.03068,19.61419)"/><path style="opacity:.11428564;fill:url(#radialGradient5755);fill-opacity:1;fill-rule:nonzero;stroke:none" id="path3390" d="m 34.951289,23.065643 c -6.010605,0 -10.843874,4.833269 -10.843874,10.843874 0,6.010605 4.833269,10.843874 10.843874,10.843874 6.010606,0 10.843875,-4.833269 10.843875,-10.843874 0,-6.010605 -4.833269,-10.843874 -10.843875,-10.843874 l 0,0 z m 0,13.446404 c -1.425195,0 -2.60253,-1.177335 -2.60253,-2.60253 0,-1.425195 1.177335,-2.60253 2.60253,-2.60253 1.425195,0 2.60253,1.177335 2.60253,2.60253 0,1.425195 -1.177335,2.60253 -2.60253,2.60253 z"/></g><path style="opacity:.9;fill:url(#linearGradient3680);fill-opacity:1;stroke:none" id="rect3625" d="m 2.7970819,926.81777 118.7144781,0 0,60.56822 C 83.779004,962.50791 35.333954,1003.6262 1.8652639,974.34051 l 0.931818,-47.52274 z"/></g></svg>