<svg xmlns="http://www.w3.org/2000/svg" xmlns:svg="http://www.w3.org/2000/svg" id="Capa_1" x="0" y="0" version="1.1" viewBox="0 0 47 47" xml:space="preserve" style="enable-background:new 0 0 47 47"><metadata id="metadata57"/><polygon style="fill:#424a60" id="polygon2" points="46.5 8 46.5 47 .5 47 .5 0 38.5 0"/><rect style="fill:#e6e6e6" id="rect4" width="31" height="21" x="7.5" y="26"/><rect style="fill:#e6e6e6" id="rect6" width="31" height="12.037" x="7.5" y="26"/><rect style="fill:#e6e6e6" id="rect8" width="26" height="16" x="9.5"/><g id="g16"><path style="fill:#fff" id="path10" d="M12.5,31h7c0.553,0,1-0.447,1-1s-0.447-1-1-1h-7c-0.553,0-1,0.447-1,1S11.947,31,12.5,31z"/><path style="fill:#f9f9f9" id="path12" d="M22.5,33h-10c-0.553,0-1,0.447-1,1s0.447,1,1,1h10c0.553,0,1-0.447,1-1S23.053,33,22.5,33z"/></g><rect style="fill:none;stroke:#424a60;stroke-width:2;stroke-linecap:round;stroke-miterlimit:10" id="rect18" width="4" height="8" x="27.5" y="4"/><polygon style="fill:#e6e6e6" id="polygon20" points="24.5 16 9.5 16 9.5 0 16.5 0"/></svg>