<svg xmlns="http://www.w3.org/2000/svg" xmlns:svg="http://www.w3.org/2000/svg" id="Layer_1" x="0" y="0" version="1.1" viewBox="0 0 280.027 280.027" xml:space="preserve" style="enable-background:new 0 0 280.027 280.027"><metadata id="metadata47"/><path id="path2" d="m 238.793,0 9.153,8.751 c 8.095,8.593 7.841,17.344 0,26.253 L 106.9,216.067 c -3.474,3.422 -9.11,3.422 -12.584,0 l -30.33,-29.893 c -3.465,-3.43 -3.465,-8.97 0,-12.391 z" style="fill:#e4e7e7"/><path id="path4" d="m 52.776,0 -9.022,8.751 c -7.972,8.593 -7.718,17.344 0,26.253 l 139.06,181.064 c 3.43,3.422 8.961,3.422 12.391,0 l 29.91,-29.893 c 3.422,-3.43 3.422,-8.97 0,-12.391 C 225.116,173.783 52.776,0 52.776,0 Z" style="fill:#ccd0d2"/><path id="path6" d="M 52.505,175.017 C 23.514,175.017 0,198.522 0,227.522 c 0,29 23.514,52.505 52.505,52.505 28.991,0 52.505,-23.505 52.505,-52.505 0,-29 -23.513,-52.505 -52.505,-52.505 z m 0,78.758 c -14.491,0 -26.253,-11.761 -26.253,-26.253 0,-14.5 11.761,-26.253 26.253,-26.253 14.5,0 26.253,11.752 26.253,26.253 0,14.492 -11.753,26.253 -26.253,26.253 z m 175.017,-78.758 c -28.983,0 -52.505,23.505 -52.505,52.505 0,29 23.522,52.505 52.505,52.505 28.983,0 52.505,-23.505 52.505,-52.505 0,-29 -23.522,-52.505 -52.505,-52.505 z m 0,78.758 c -14.5,0 -26.253,-11.761 -26.253,-26.253 0,-14.5 11.752,-26.253 26.253,-26.253 14.5,0 26.253,11.752 26.253,26.253 0,14.492 -11.753,26.253 -26.253,26.253 z" style="fill:#f55"/><path id="path8" d="m 144.389,113.761 c 7.246,0 13.126,5.872 13.126,13.126 0,7.254 -5.881,13.126 -13.126,13.126 -7.245,0 -13.126,-5.872 -13.126,-13.126 0,-7.254 5.88,-13.126 13.126,-13.126 z" style="fill:#8e9193"/></svg>