<svg xmlns="http://www.w3.org/2000/svg" xmlns:svg="http://www.w3.org/2000/svg" id="Capa_1" x="0" y="0" version="1.1" viewBox="0 0 58.981 58.981" xml:space="preserve" style="enable-background:new 0 0 58.981 58.981"><metadata id="metadata65"/><g id="g18"><polygon id="polygon2" points=".482 0 .482 58 45.482 58 45.482 14 31.482 0" style="fill:#efebde"/><g id="g14"><path id="path4" d="m 10.482,23 h 25 c 0.552,0 1,-0.447 1,-1 0,-0.553 -0.448,-1 -1,-1 h -25 c -0.552,0 -1,0.447 -1,1 0,0.553 0.447,1 1,1 z" style="fill:#d5d0bb"/><path id="path6" d="m 10.482,15 h 10 c 0.552,0 1,-0.447 1,-1 0,-0.553 -0.448,-1 -1,-1 h -10 c -0.552,0 -1,0.447 -1,1 0,0.553 0.447,1 1,1 z" style="fill:#d5d0bb"/><path id="path8" d="m 35.482,29 h -25 c -0.552,0 -1,0.447 -1,1 0,0.553 0.448,1 1,1 h 25 c 0.552,0 1,-0.447 1,-1 0,-0.553 -0.448,-1 -1,-1 z" style="fill:#d5d0bb"/><path id="path10" d="m 35.482,37 h -25 c -0.552,0 -1,0.447 -1,1 0,0.553 0.448,1 1,1 h 25 c 0.552,0 1,-0.447 1,-1 0,-0.553 -0.448,-1 -1,-1 z" style="fill:#d5d0bb"/><path id="path12" d="m 35.482,45 h -25 c -0.552,0 -1,0.447 -1,1 0,0.553 0.448,1 1,1 h 25 c 0.552,0 1,-0.447 1,-1 0,-0.553 -0.448,-1 -1,-1 z" style="fill:#d5d0bb"/></g><polygon id="polygon16" points="45.482 14 31.482 0 31.482 14" style="fill:#d5d0bb"/></g><path style="fill:teal;stroke-width:.54613936" id="path2" d="M 58.303524,29.173759 C 58.185557,29.070533 58.029908,29.023571 57.87262,29.04214 l -16.930319,2.190564 c -0.272524,0.03549 -0.476234,0.267062 -0.476234,0.541771 v 3.28612 2.300339 14.218738 c -0.948644,-1.086817 -2.428136,-1.788607 -4.095499,-1.788607 -2.865593,0 -5.188323,2.064953 -5.188323,4.611601 0,2.546647 2.32273,4.6116 5.188323,4.6116 2.865593,0 5.188324,-2.064953 5.188324,-4.6116 0,-0.181319 -0.01475,-0.35936 -0.03769,-0.535763 0.02185,-0.05899 0.03769,-0.120697 0.03769,-0.187326 V 37.840444 l 15.83804,-2.049661 v 10.326948 c -0.94919,-1.086271 -2.428681,-1.78806 -4.096045,-1.78806 -2.865593,0 -5.188323,2.064954 -5.188323,4.611602 0,2.546647 2.32273,4.6116 5.188323,4.6116 2.865593,0 5.188324,-2.064953 5.188324,-4.6116 0,-0.05024 -0.0066,-0.09885 -0.0082,-0.14855 0.0011,-0.01475 0.0082,-0.02731 0.0082,-0.04206 V 35.169276 32.869484 29.58391 c 0,-0.157288 -0.06772,-0.30693 -0.185687,-0.410151 z"/></svg>