<svg xmlns="http://www.w3.org/2000/svg" xmlns:xlink="http://www.w3.org/1999/xlink" id="Capa_1" x="0" y="0" version="1.1" viewBox="0 0 58 58" xml:space="preserve" style="enable-background:new 0 0 58 58"><path style="fill:#e7eced" d="M45,26H13C5.85,26,0,20.15,0,13v0C0,5.85,5.85,0,13,0h32c7.15,0,13,5.85,13,13v0	C58,20.15,52.15,26,45,26z"/><path style="fill:#e7eced" d="M13,58h32c7.15,0,13-5.85,13-13v0c0-7.15-5.85-13-13-13H13C5.85,32,0,37.85,0,45v0	C0,52.15,5.85,58,13,58z"/><circle style="fill:#88c057;stroke:#659c35;stroke-width:2;stroke-linecap:round;stroke-miterlimit:10" cx="45" cy="13" r="9"/><circle style="fill:#ed7161;stroke:#d75a4a;stroke-width:2;stroke-linecap:round;stroke-miterlimit:10" cx="13" cy="45" r="9"/></svg>