<svg xmlns="http://www.w3.org/2000/svg" xmlns:svg="http://www.w3.org/2000/svg" id="Capa_1" x="0" y="0" version="1.1" viewBox="0 0 58 58" xml:space="preserve" style="enable-background:new 0 0 58 58"><metadata id="metadata47"/><path style="fill:#7383bf" id="path4" d="M16.427,20H8.104C6.942,20,6,20.942,6,22.104v12.793C6,36.058,6.942,37,8.104,37h8.323 c0.375,0,0.743,0.1,1.067,0.29L30.83,49.706C32.232,50.531,34,49.52,34,47.893V9.107c0-1.627-1.768-2.638-3.17-1.813L17.494,19.71 C17.17,19.9,16.802,20,16.427,20z"/><path style="fill:#ebba16;fill-opacity:1" id="path8" d="M38,38c-0.256,0-0.512-0.098-0.707-0.293c-0.391-0.391-0.391-1.023,0-1.414 c4.297-4.297,4.297-11.289,0-15.586c-0.391-0.391-0.391-1.023,0-1.414s1.023-0.391,1.414,0c5.077,5.077,5.077,13.337,0,18.414 C38.512,37.902,38.256,38,38,38z"/></svg>